<svg xmlns="http://www.w3.org/2000/svg" width="512" height="512" viewBox="0 0 512 512">
  <defs>
    <linearGradient id="bg" x1="0" y1="0" x2="1" y2="1">
      <stop offset="0%" stop-color="#3D7A35"/>
      <stop offset="100%" stop-color="#2D5A27"/>
    </linearGradient>
    <linearGradient id="shine" x1="0" y1="0" x2="0" y2="1">
      <stop offset="0%" stop-color="white" stop-opacity="0.15"/>
      <stop offset="100%" stop-color="white" stop-opacity="0"/>
    </linearGradient>
  </defs>
  <rect width="512" height="512" rx="112" fill="url(#bg)"/>
  <rect width="512" height="256" rx="112" fill="url(#shine)"/>
  <g transform="translate(256, 250)">
    <path d="M-10,-90 C-10,-90 -120,-80 -140,-50 L-140,80 C-120,50 -10,40 -10,40 Z" fill="white" opacity="0.95"/>
    <path d="M10,-90 C10,-90 120,-80 140,-50 L140,80 C120,50 10,40 10,40 Z" fill="white" opacity="0.85"/>
    <rect x="-10" y="-90" width="20" height="130" rx="3" fill="white" opacity="0.7"/>
    <line x1="-110" y1="-20" x2="-30" y2="-20" stroke="#2D5A27" stroke-width="6" stroke-linecap="round" opacity="0.3"/>
    <line x1="-100" y1="0" x2="-30" y2="0" stroke="#2D5A27" stroke-width="6" stroke-linecap="round" opacity="0.25"/>
    <line x1="-105" y1="20" x2="-30" y2="20" stroke="#2D5A27" stroke-width="6" stroke-linecap="round" opacity="0.2"/>
    <line x1="30" y1="-20" x2="110" y2="-20" stroke="#2D5A27" stroke-width="6" stroke-linecap="round" opacity="0.3"/>
    <line x1="30" y1="0" x2="100" y2="0" stroke="#2D5A27" stroke-width="6" stroke-linecap="round" opacity="0.25"/>
    <line x1="30" y1="20" x2="105" y2="20" stroke="#2D5A27" stroke-width="6" stroke-linecap="round" opacity="0.2"/>
  </g>
  <text x="256" y="155" text-anchor="middle" font-family="Georgia, serif" font-weight="800" font-size="100" fill="white" opacity="0.95">T</text>
</svg>
